<?xml version="1.0" encoding="UTF-8"?>
<svg id="Layer_1" data-name="Layer 1" xmlns="http://www.w3.org/2000/svg" viewBox="0 0 1000 227">
  <defs>
    <style>
      .cls-1 {
        stroke-width: 3px;
      }

      .cls-1, .cls-2, .cls-3, .cls-4 {
        stroke: #2b361c;
        stroke-miterlimit: 10;
      }

      .cls-1, .cls-3 {
        stroke-linecap: round;
      }

      .cls-1, .cls-3, .cls-4 {
        fill: none;
      }

      .cls-2 {
        fill: #fff;
      }

      .cls-2, .cls-3, .cls-4 {
        stroke-width: 4px;
      }

      .cls-5 {
        fill: #2b361c;
      }

      .cls-5, .cls-6 {
        stroke-width: 0px;
      }

      .cls-6 {
        fill: #e9a9a2;
      }
    </style>
  </defs>
  <g>
    <path class="cls-5" d="m81.3,77.8h20.4l16.5,31.5,16.2-31.5h20.7v71.4h-14.7v-50.5h-.2l-15.9,32.5h-12.1l-15.8-32h-.2v50h-14.9v-71.4Z"/>
    <path class="cls-5" d="m163.5,149.2l32.4-71.3h15.8l31.9,71.3h-15.2l-7-15.8h-36.1l-7.5,15.8h-14.3Zm40.5-57.9l-12,27.6h23.7l-11.6-27.6h-.1Z"/>
    <path class="cls-5" d="m252.7,77.8h20.4l16.5,31.5,16.2-31.5h20.7v71.4h-14.7v-50.5h-.2l-15.9,32.5h-12.1l-15.8-32h-.2v50h-14.9v-71.4Z"/>
    <path class="cls-5" d="m334.9,149.2l32.4-71.3h15.8l31.9,71.3h-15.2l-7-15.8h-36.1l-7.5,15.8h-14.3Zm40.5-57.9l-12,27.6h23.7l-11.6-27.6h-.1Z"/>
    <path class="cls-5" d="m454.4,77.8h20.4l16.5,31.5,16.2-31.5h20.7v71.4h-14.7v-50.5h-.2l-15.9,32.5h-12.1l-15.8-32h-.2v50h-14.9v-71.4Z"/>
    <path class="cls-5" d="m536.6,149.2l32.4-71.3h15.8l31.9,71.3h-15.2l-7-15.8h-36.1l-7.5,15.8h-14.3Zm40.5-57.9l-12,27.6h23.7l-11.6-27.6h-.1Z"/>
    <path class="cls-5" d="m687,149.2h-21.6l-18.6-20-9.3,12.9v7.1h-16v-71.5h16v40.5l27.9-40.5h19.5l-26.9,40.5,29,31Z"/>
    <path class="cls-5" d="m709.7,135.9h40.3v13.2h-55.5v-71.6h52.1v13.2h-36.9v16.1h32.6v13.9h-32.6v15.2Z"/>
    <path class="cls-5" d="m772,128c1.6,9.4,10,10.7,15.8,10.7,5.5,0,13.9-1.6,13.9-8.9,0-15.2-42.5-5.4-42.5-32.1,0-14.7,13.8-21.6,26.7-21.6,14.9,0,28.6,6.5,28.6,23l-15.2-2.2c-1.9-8.3-9.2-8.6-14.1-8.6s-10.8,2.1-10.8,8.1c0,5.3,3.4,6.5,21.3,10.8,5.3,1.3,21.2,4.6,21.2,20.8,0,13.1-10.2,22.9-29.7,22.9-16,0-30.4-7.8-30.4-25.4l15.2,2.5Z"/>
  </g>
  <g>
    <path class="cls-1" d="m837.94,169.97c1.73,1.59,7.37,6.35,16,7,11.11.83,18.67-5.79,20-7"/>
    <path class="cls-1" d="m837.94,169.97c1.73,1.59,7.37,6.35,16,7,11.11.83,18.67-5.79,20-7"/>
    <ellipse class="cls-6" cx="832.44" cy="161.47" rx="6.5" ry="3.5"/>
    <ellipse class="cls-6" cx="832.44" cy="161.47" rx="6.5" ry="3.5"/>
    <ellipse class="cls-6" cx="877.44" cy="161.47" rx="6.5" ry="3.5"/>
    <ellipse class="cls-6" cx="877.44" cy="161.47" rx="6.5" ry="3.5"/>
    <path class="cls-1" d="m852.44,152.47c-.22.2-2.37,2.22-2,5,.35,2.64,2.84,4.84,6,5"/>
    <path class="cls-1" d="m852.44,152.47c-.22.2-2.37,2.22-2,5,.35,2.64,2.84,4.84,6,5"/>
    <rect class="cls-5" x="840.44" y="137.47" width="4.67" height="14" rx="2.33" ry="2.33"/>
    <rect class="cls-5" x="840.44" y="137.47" width="4.67" height="14" rx="2.33" ry="2.33"/>
    <rect class="cls-5" x="862.44" y="137.47" width="4.67" height="14" rx="2.33" ry="2.33"/>
    <rect class="cls-5" x="862.44" y="137.47" width="4.67" height="14" rx="2.33" ry="2.33"/>
    <path class="cls-2" d="m828.94,118.97c-.33-13.67-3.67-25.33-4-39-10.55-2.94-16.87-13.33-15-23,2.1-10.86,14.09-18.46,26-15,3.64-8.73,12.1-14.31,21-14,10.45.36,19.6,8.78,21,20,13.24-3.85,25.06,4.88,26,14,.8,7.72-6.07,16.9-17,19,1,13.33-2,24.67-1,38h-57Z"/>
    <path class="cls-2" d="m828.94,118.97c-.33-13.67-3.67-25.33-4-39-10.55-2.94-16.87-13.33-15-23,2.1-10.86,14.09-18.46,26-15,3.64-8.73,12.1-14.31,21-14,10.45.36,19.6,8.78,21,20,13.24-3.85,25.06,4.88,26,14,.8,7.72-6.07,16.9-17,19,1,13.33-2,24.67-1,38h-57Z"/>
    <line class="cls-4" x1="826.94" y1="104.97" x2="884.94" y2="103.97"/>
    <line class="cls-4" x1="826.94" y1="104.97" x2="884.94" y2="103.97"/>
    <line class="cls-3" x1="839.94" y1="90.97" x2="839.94" y2="97.97"/>
    <line class="cls-3" x1="839.94" y1="90.97" x2="839.94" y2="97.97"/>
    <line class="cls-3" x1="850.94" y1="90.97" x2="850.94" y2="97.97"/>
    <line class="cls-3" x1="850.94" y1="90.97" x2="850.94" y2="97.97"/>
    <line class="cls-3" x1="860.94" y1="90.97" x2="860.94" y2="97.97"/>
    <line class="cls-3" x1="860.94" y1="90.97" x2="860.94" y2="97.97"/>
    <line class="cls-3" x1="871.94" y1="89.97" x2="871.94" y2="96.97"/>
    <line class="cls-3" x1="871.94" y1="89.97" x2="871.94" y2="96.97"/>
  </g>
</svg>